{"asset":{"version":"2.0"},"scene":0,"scenes":[{"nodes":[0]}],"nodes":[{"mesh":0}],"meshes":[{"primitives":[{"attributes":{"POSITION":0,"NORMAL":1},"indices":2}]}],"accessors":[{"bufferView":0,"componentType":5126,"count":8,"type":"VEC3","max":[1,1,1],"min":[-1,-1,-1]},{"bufferView":1,"componentType":5126,"count":8,"type":"VEC3"},{"bufferView":2,"componentType":5123,"count":36,"type":"SCALAR"}],"bufferViews":[{"buffer":0,"byteOffset":0,"byteLength":96},{"buffer":0,"byteOffset":96,"byteLength":96},{"buffer":0,"byteOffset":192,"byteLength":72}],"buffers":[{"byteLength":264,"uri":"data:application/octet-stream;base64,"}]}
